<svg width="1500" height="1000" viewBox="0 0 1500 1000" fill="none" xmlns="http://www.w3.org/2000/svg">
<g clip-path="url(#clip0)">
<rect width="1500" height="1000" fill="white"/>
<path d="M0 0V82.5H3L7 83L21 85L35 87L51.5 89.5L77.5 93.5L94 96L116.5 99.5L138 103L388.5 155L394 156.5L407 160L422 164L439 169L457.5 174.5L472.5 179L494 186L514 193L525 197L540 202.5L557.5 209.5L575 217L584 221L592 224.5L605.5 231L621 239L632 245L643 251.5L651 256.5L659.5 262L671 270L685.5 281.5L693 288L705 299.5L708 303L711 306.5L716 312.5L720 318L724 324L726.5 328L727.5 330L730.5 335.5L733 341L735.5 347L737 351.5L738.5 356.5L740.5 365L741.5 369L742 371L742.5 373L743 375L745.5 384L750 397.5L756.5 414L767 437L777.5 456L787 471.5L804 495.5L817.5 512.5L826.5 523L843 541L859 557L864 561.5L872.5 569.5L878.5 574.5L886.5 581.5L895 589L913.5 603.5L969.5 643L1004 664.5L1037.5 683.5L1066 699L1098 715L1131 730.5L1175.5 750L1220 768L1253.5 780.5L1299.5 797L1338 809.5L1379 822L1421 834L1439 839L1457 843.5L1477 848.5L1492 852L1496.5 853L1500 853.791V0H0Z" fill="#07367C" stroke="black"/>
</g>
<defs>
<clipPath id="clip0">
<rect width="1500" height="1000" fill="white"/>
</clipPath>
</defs>
</svg>