<?xml version="1.0" encoding="UTF-8" standalone="no"?><svg xmlns="http://www.w3.org/2000/svg" xmlns:xlink="http://www.w3.org/1999/xlink" contentScriptType="application/ecmascript" contentStyleType="text/css" height="498px" preserveAspectRatio="none" style="width:539px;height:498px;" version="1.1" viewBox="0 0 539 498" width="539px" zoomAndPan="magnify"><defs><filter height="300%" id="f1qtdce9vy3xc2" width="300%" x="-1" y="-1"><feGaussianBlur result="blurOut" stdDeviation="2.0"/><feColorMatrix in="blurOut" result="blurOut2" type="matrix" values="0 0 0 0 0 0 0 0 0 0 0 0 0 0 0 0 0 0 .4 0"/><feOffset dx="4.0" dy="4.0" in="blurOut2" result="blurOut3"/><feBlend in="SourceGraphic" in2="blurOut3" mode="normal"/></filter></defs><g><!--MD5=[fd31060f192c5068a3d5f01ee9cd5dbe]
cluster MarketInteractions--><polygon fill="#FFFFFF" filter="url(#f1qtdce9vy3xc2)" points="16,6,155,6,162,29.6094,522,29.6094,522,491,16,491,16,6" style="stroke:#000000;stroke-width:1.5;"/><line style="stroke:#000000;stroke-width:1.5;" x1="16" x2="162" y1="29.6094" y2="29.6094"/><text fill="#000000" font-family="sans-serif" font-size="14" font-weight="bold" lengthAdjust="spacing" textLength="133" x="20" y="22.5332">MarketInteractions</text><!--MD5=[eb51aee20e1c0daae8f012eb598a3615]
class MarketInteractionsFacade--><rect codeLine="3" fill="#FEFECE" filter="url(#f1qtdce9vy3xc2)" height="324.7188" id="MarketInteractionsFacade" style="stroke:#A80036;stroke-width:1.5;" width="473" x="32.5" y="42"/><ellipse cx="194.25" cy="58" fill="#ADD1B2" rx="11" ry="11" style="stroke:#A80036;stroke-width:1.0;"/><path d="M197.0156,53.875 Q197.1719,53.6563 197.3594,53.5469 Q197.5469,53.4375 197.7656,53.4375 Q198.1406,53.4375 198.375,53.7031 Q198.6094,53.9531 198.6094,54.5625 L198.6094,56.0156 Q198.6094,56.625 198.375,56.8906 Q198.1406,57.1563 197.7656,57.1563 Q197.4219,57.1563 197.2188,56.9531 Q197.0156,56.7656 196.9063,56.25 Q196.8594,55.8906 196.6719,55.7031 Q196.3438,55.3281 195.7344,55.1094 Q195.125,54.8906 194.5,54.8906 Q193.7344,54.8906 193.0938,55.2188 Q192.4688,55.5469 191.9688,56.2969 Q191.4844,57.0469 191.4844,58.0781 L191.4844,59.1719 Q191.4844,60.4063 192.375,61.2344 Q193.2656,62.0469 194.8594,62.0469 Q195.7969,62.0469 196.4531,61.7969 Q196.8438,61.6406 197.2656,61.2031 Q197.5313,60.9375 197.6719,60.8594 Q197.8281,60.7813 198.0313,60.7813 Q198.3594,60.7813 198.6094,61.0469 Q198.875,61.2969 198.875,61.6406 Q198.875,61.9844 198.5313,62.3906 Q198.0313,62.9688 197.2344,63.2969 Q196.1563,63.75 194.8594,63.75 Q193.3438,63.75 192.1406,63.125 Q191.1563,62.625 190.4688,61.5625 Q189.7813,60.4844 189.7813,59.2031 L189.7813,58.0469 Q189.7813,56.7188 190.3906,55.5781 Q191.0156,54.4219 192.1094,53.8125 Q193.2031,53.1875 194.4375,53.1875 Q195.1719,53.1875 195.8125,53.3594 Q196.4688,53.5156 197.0156,53.875 Z " fill="#000000"/><text fill="#000000" font-family="sans-serif" font-size="12" lengthAdjust="spacing" textLength="141" x="214.75" y="62.9102">MarketInteractionsFacade</text><line style="stroke:#A80036;stroke-width:1.5;" x1="33.5" x2="504.5" y1="74" y2="74"/><rect fill="none" height="6" style="stroke:#C82930;stroke-width:1.0;" width="6" x="40.5" y="82"/><text fill="#000000" font-family="sans-serif" font-size="11" lengthAdjust="spacing" textLength="94" x="52.5" y="89.4189">final AlpacaService</text><line style="stroke:#A80036;stroke-width:1.5;" x1="33.5" x2="504.5" y1="95.8359" y2="95.8359"/><polygon fill="#4177AF" points="43.5,102.8359,39.5,108.8359,47.5,108.8359" style="stroke:#1963A0;stroke-width:1.0;"/><text fill="#000000" font-family="sans-serif" font-size="11" lengthAdjust="spacing" textLength="155" x="52.5" y="111.2549">Order createOrder(Order order)</text><polygon fill="#4177AF" points="43.5,116.6719,39.5,122.6719,47.5,122.6719" style="stroke:#1963A0;stroke-width:1.0;"/><text fill="#000000" font-family="sans-serif" font-size="11" lengthAdjust="spacing" textLength="108" x="52.5" y="125.0908">Account getAccount()</text><polygon fill="#4177AF" points="43.5,130.5078,39.5,136.5078,47.5,136.5078" style="stroke:#1963A0;stroke-width:1.0;"/><text fill="#000000" font-family="sans-serif" font-size="11" lengthAdjust="spacing" textLength="245" x="52.5" y="138.9268">ArrayList&lt;AccountActivity&gt; getAccountActivities()</text><polygon fill="#4177AF" points="43.5,144.3438,39.5,150.3438,47.5,150.3438" style="stroke:#1963A0;stroke-width:1.0;"/><text fill="#000000" font-family="sans-serif" font-size="11" lengthAdjust="spacing" textLength="236" x="52.5" y="152.7627">AccountConfiguration getAccountConfiguration()</text><polygon fill="#4177AF" points="43.5,158.1797,39.5,164.1797,47.5,164.1797" style="stroke:#1963A0;stroke-width:1.0;"/><text fill="#000000" font-family="sans-serif" font-size="11" lengthAdjust="spacing" textLength="447" x="52.5" y="166.5986">AccountConfiguration setAccountConfiguration(AccountConfiguration accountConfiguration)</text><polygon fill="#4177AF" points="43.5,172.0156,39.5,178.0156,47.5,178.0156" style="stroke:#1963A0;stroke-width:1.0;"/><text fill="#000000" font-family="sans-serif" font-size="11" lengthAdjust="spacing" textLength="145" x="52.5" y="180.4346">ArrayList&lt;Order&gt; getOrders()</text><polygon fill="#4177AF" points="43.5,185.8516,39.5,191.8516,47.5,191.8516" style="stroke:#1963A0;stroke-width:1.0;"/><text fill="#000000" font-family="sans-serif" font-size="11" lengthAdjust="spacing" textLength="229" x="52.5" y="194.2705">Order getOrder(String orderID, Boolean nested)</text><polygon fill="#4177AF" points="43.5,199.6875,39.5,205.6875,47.5,205.6875" style="stroke:#1963A0;stroke-width:1.0;"/><text fill="#000000" font-family="sans-serif" font-size="11" lengthAdjust="spacing" textLength="222" x="52.5" y="208.1064">Order getOrderByClientID(String clientOrderId)</text><polygon fill="#4177AF" points="43.5,213.5234,39.5,219.5234,47.5,219.5234" style="stroke:#1963A0;stroke-width:1.0;"/><text fill="#000000" font-family="sans-serif" font-size="11" lengthAdjust="spacing" textLength="103" x="52.5" y="221.9424">Order replaceOrder()</text><polygon fill="#4177AF" points="43.5,227.3594,39.5,233.3594,47.5,233.3594" style="stroke:#1963A0;stroke-width:1.0;"/><text fill="#000000" font-family="sans-serif" font-size="11" lengthAdjust="spacing" textLength="221" x="52.5" y="235.7783">ArrayList&lt;CancelledOrder&gt; cancelAllOrders()</text><polygon fill="#4177AF" points="43.5,241.1953,39.5,247.1953,47.5,247.1953" style="stroke:#1963A0;stroke-width:1.0;"/><text fill="#000000" font-family="sans-serif" font-size="11" lengthAdjust="spacing" textLength="174" x="52.5" y="249.6143">boolean cancelOrder(String orderId)</text><polygon fill="#4177AF" points="43.5,255.0313,39.5,261.0313,47.5,261.0313" style="stroke:#1963A0;stroke-width:1.0;"/><text fill="#000000" font-family="sans-serif" font-size="11" lengthAdjust="spacing" textLength="189" x="52.5" y="263.4502">ArrayList&lt;Position&gt; getOpenPositions()</text><polygon fill="#4177AF" points="43.5,268.8672,39.5,274.8672,47.5,274.8672" style="stroke:#1963A0;stroke-width:1.0;"/><text fill="#000000" font-family="sans-serif" font-size="11" lengthAdjust="spacing" textLength="239" x="52.5" y="277.2861">Position getOpenPositionBySymbol(String symbol)</text><polygon fill="#4177AF" points="43.5,282.7031,39.5,288.7031,47.5,288.7031" style="stroke:#1963A0;stroke-width:1.0;"/><text fill="#000000" font-family="sans-serif" font-size="11" lengthAdjust="spacing" textLength="241" x="52.5" y="291.1221">ArrayList&lt;ClosePositionOrder&gt; closeAllPositions()</text><polygon fill="#4177AF" points="43.5,296.5391,39.5,302.5391,47.5,302.5391" style="stroke:#1963A0;stroke-width:1.0;"/><text fill="#000000" font-family="sans-serif" font-size="11" lengthAdjust="spacing" textLength="167" x="52.5" y="304.958">Order closePosition(String symbol)</text><polygon fill="#4177AF" points="43.5,310.375,39.5,316.375,47.5,316.375" style="stroke:#1963A0;stroke-width:1.0;"/><text fill="#000000" font-family="sans-serif" font-size="11" lengthAdjust="spacing" textLength="359" x="52.5" y="318.7939">ArrayList&lt;Asset&gt; getAssets(AssetStatus assetStatus, String assetClass)</text><polygon fill="#4177AF" points="43.5,324.2109,39.5,330.2109,47.5,330.2109" style="stroke:#1963A0;stroke-width:1.0;"/><text fill="#000000" font-family="sans-serif" font-size="11" lengthAdjust="spacing" textLength="247" x="52.5" y="332.6299">Asset getAssetBySymbol(String symbolOrAssetID)</text><polygon fill="#4177AF" points="43.5,338.0469,39.5,344.0469,47.5,344.0469" style="stroke:#1963A0;stroke-width:1.0;"/><text fill="#000000" font-family="sans-serif" font-size="11" lengthAdjust="spacing" textLength="349" x="52.5" y="346.4658">Watchlist removeSymbolFromWatchlist(String watchlistID, String symbol)</text><polygon fill="#4177AF" points="43.5,351.8828,39.5,357.8828,47.5,357.8828" style="stroke:#1963A0;stroke-width:1.0;"/><text fill="#000000" font-family="sans-serif" font-size="11" lengthAdjust="spacing" textLength="321" x="52.5" y="360.3018">PortfolioHistory getPortfolioHistory(PortfolioHistory portfolioHistory)</text><!--MD5=[5d8a66228b458ddf78f15f33cf8e9f8f]
class AlpacaService--><rect codeLine="27" fill="#FEFECE" filter="url(#f1qtdce9vy3xc2)" height="48" id="AlpacaService" style="stroke:#A80036;stroke-width:1.5;" width="109" x="214.5" y="427"/><ellipse cx="229.5" cy="443" fill="#ADD1B2" rx="11" ry="11" style="stroke:#A80036;stroke-width:1.0;"/><path d="M232.2656,438.875 Q232.4219,438.6563 232.6094,438.5469 Q232.7969,438.4375 233.0156,438.4375 Q233.3906,438.4375 233.625,438.7031 Q233.8594,438.9531 233.8594,439.5625 L233.8594,441.0156 Q233.8594,441.625 233.625,441.8906 Q233.3906,442.1563 233.0156,442.1563 Q232.6719,442.1563 232.4688,441.9531 Q232.2656,441.7656 232.1563,441.25 Q232.1094,440.8906 231.9219,440.7031 Q231.5938,440.3281 230.9844,440.1094 Q230.375,439.8906 229.75,439.8906 Q228.9844,439.8906 228.3438,440.2188 Q227.7188,440.5469 227.2188,441.2969 Q226.7344,442.0469 226.7344,443.0781 L226.7344,444.1719 Q226.7344,445.4063 227.625,446.2344 Q228.5156,447.0469 230.1094,447.0469 Q231.0469,447.0469 231.7031,446.7969 Q232.0938,446.6406 232.5156,446.2031 Q232.7813,445.9375 232.9219,445.8594 Q233.0781,445.7813 233.2813,445.7813 Q233.6094,445.7813 233.8594,446.0469 Q234.125,446.2969 234.125,446.6406 Q234.125,446.9844 233.7813,447.3906 Q233.2813,447.9688 232.4844,448.2969 Q231.4063,448.75 230.1094,448.75 Q228.5938,448.75 227.3906,448.125 Q226.4063,447.625 225.7188,446.5625 Q225.0313,445.4844 225.0313,444.2031 L225.0313,443.0469 Q225.0313,441.7188 225.6406,440.5781 Q226.2656,439.4219 227.3594,438.8125 Q228.4531,438.1875 229.6875,438.1875 Q230.4219,438.1875 231.0625,438.3594 Q231.7188,438.5156 232.2656,438.875 Z " fill="#000000"/><text fill="#000000" font-family="sans-serif" font-size="12" lengthAdjust="spacing" textLength="77" x="243.5" y="447.9102">AlpacaService</text><line style="stroke:#A80036;stroke-width:1.5;" x1="215.5" x2="322.5" y1="459" y2="459"/><line style="stroke:#A80036;stroke-width:1.5;" x1="215.5" x2="322.5" y1="467" y2="467"/><!--MD5=[258e79f4f5a39579ce8574dad25ee9f2]
reverse link MarketInteractionsFacade to AlpacaService--><path codeLine="33" d="M269,380.32 C269,398.36 269,414.51 269,426.71 " fill="none" id="MarketInteractionsFacade-backto-AlpacaService" style="stroke:#A80036;stroke-width:1.0;"/><polygon fill="#A80036" points="269,367.22,265,373.22,269,379.22,273,373.22,269,367.22" style="stroke:#A80036;stroke-width:1.0;"/><!--MD5=[780361fec6e8fba3c99257b27f975651]
@startuml

package MarketInteractions {
    class MarketInteractionsFacade {
        -final AlpacaService

        ~Order createOrder(Order order)
        ~Account getAccount()
        ~ArrayList<AccountActivity> getAccountActivities()
        ~AccountConfiguration getAccountConfiguration()
        ~AccountConfiguration setAccountConfiguration(AccountConfiguration accountConfiguration)
        ~ArrayList<Order> getOrders()
        ~Order getOrder(String orderID, Boolean nested)
        ~Order getOrderByClientID(String clientOrderId)
        ~Order replaceOrder()
        ~ArrayList<CancelledOrder> cancelAllOrders()
        ~boolean cancelOrder(String orderId)
        ~ArrayList<Position> getOpenPositions()
        ~Position getOpenPositionBySymbol(String symbol)
        ~ArrayList<ClosePositionOrder> closeAllPositions()
        ~Order closePosition(String symbol)
        ~ArrayList<Asset> getAssets(AssetStatus assetStatus, String assetClass)
        ~Asset getAssetBySymbol(String symbolOrAssetID)
        ~Watchlist removeSymbolFromWatchlist(String watchlistID, String symbol)
        ~PortfolioHistory getPortfolioHistory(PortfolioHistory portfolioHistory)
    }

    class AlpacaService {

    }

}

MarketInteractionsFacade *- - AlpacaService

@enduml

PlantUML version 1.2021.00(Sun Jan 10 02:25:05 PST 2021)
(GPL source distribution)
Java Runtime: Java(TM) SE Runtime Environment
JVM: Java HotSpot(TM) 64-Bit Server VM
Default Encoding: Cp1252
Language: en
Country: US
--></g></svg>