<?xml version="1.0" encoding="UTF-8" standalone="no"?><svg xmlns="http://www.w3.org/2000/svg" xmlns:xlink="http://www.w3.org/1999/xlink" contentScriptType="application/ecmascript" contentStyleType="text/css" height="274px" preserveAspectRatio="none" style="width:3077px;height:274px;" version="1.1" viewBox="0 0 3077 274" width="3077px" zoomAndPan="magnify"><defs><filter height="300%" id="f18d7le2ibzuo0" width="300%" x="-1" y="-1"><feGaussianBlur result="blurOut" stdDeviation="2.0"/><feColorMatrix in="blurOut" result="blurOut2" type="matrix" values="0 0 0 0 0 0 0 0 0 0 0 0 0 0 0 0 0 0 .4 0"/><feOffset dx="4.0" dy="4.0" in="blurOut2" result="blurOut3"/><feBlend in="SourceGraphic" in2="blurOut3" mode="normal"/></filter></defs><g><!--MD5=[5622bc4ba3bf2be5d17935065b98c5f9]
cluster dao--><polygon fill="#FFFFFF" filter="url(#f18d7le2ibzuo0)" points="16,6,48,6,55,29.6094,3060,29.6094,3060,267,16,267,16,6" style="stroke:#000000;stroke-width:1.5;"/><line style="stroke:#000000;stroke-width:1.5;" x1="16" x2="55" y1="29.6094" y2="29.6094"/><text fill="#000000" font-family="sans-serif" font-size="14" font-weight="bold" lengthAdjust="spacing" textLength="26" x="20" y="22.5332">dao</text><!--MD5=[70d98a5b6eddfa62f6550e7c1d028c5c]
class UserDao--><rect codeLine="3" fill="#FEFECE" filter="url(#f18d7le2ibzuo0)" height="103.3438" id="UserDao" style="stroke:#A80036;stroke-width:1.5;" width="462" x="32" y="141"/><ellipse cx="234.25" cy="157" fill="#B4A7E5" rx="11" ry="11" style="stroke:#A80036;stroke-width:1.0;"/><path d="M235.2031,153.6406 L235.2031,160.2969 L236.9219,160.2969 Q237.5313,160.2969 237.7969,160.5313 Q238.0625,160.7656 238.0625,161.1563 Q238.0625,161.5313 237.7969,161.7656 Q237.5313,162 236.9219,162 L231.7813,162 Q231.1719,162 230.9063,161.7656 Q230.6406,161.5313 230.6406,161.1406 Q230.6406,160.7656 230.9063,160.5313 Q231.1719,160.2969 231.7813,160.2969 L233.5,160.2969 L233.5,153.6406 L231.7813,153.6406 Q231.1719,153.6406 230.9063,153.4063 Q230.6406,153.1719 230.6406,152.7813 Q230.6406,152.4063 230.9063,152.1719 Q231.1719,151.9375 231.7813,151.9375 L236.9219,151.9375 Q237.5313,151.9375 237.7969,152.1719 Q238.0625,152.4063 238.0625,152.7813 Q238.0625,153.1719 237.7969,153.4063 Q237.5313,153.6406 236.9219,153.6406 L235.2031,153.6406 Z " fill="#000000"/><text fill="#000000" font-family="sans-serif" font-size="12" font-style="italic" lengthAdjust="spacing" textLength="49" x="254.75" y="161.9102">UserDao</text><line style="stroke:#A80036;stroke-width:1.5;" x1="33" x2="493" y1="173" y2="173"/><line style="stroke:#A80036;stroke-width:1.5;" x1="33" x2="493" y1="181" y2="181"/><polygon fill="#4177AF" points="43,188,39,194,47,194" style="stroke:#1963A0;stroke-width:1.0;"/><text fill="#000000" font-family="sans-serif" font-size="11" lengthAdjust="spacing" textLength="108" x="52" y="196.4189">List&lt;Follows&gt; findAll()</text><polygon fill="#4177AF" points="43,201.8359,39,207.8359,47,207.8359" style="stroke:#1963A0;stroke-width:1.0;"/><text fill="#000000" font-family="sans-serif" font-size="11" lengthAdjust="spacing" textLength="234" x="52" y="210.2549">List&lt;Follows&gt; findByFollowerId(Long followerId)</text><polygon fill="#4177AF" points="43,215.6719,39,221.6719,47,221.6719" style="stroke:#1963A0;stroke-width:1.0;"/><text fill="#000000" font-family="sans-serif" font-size="11" lengthAdjust="spacing" textLength="285" x="52" y="224.0908">List&lt;Follows&gt; findByUserToFollowId(Long userToFollowId)</text><polygon fill="#4177AF" points="43,229.5078,39,235.5078,47,235.5078" style="stroke:#1963A0;stroke-width:1.0;"/><text fill="#000000" font-family="sans-serif" font-size="11" lengthAdjust="spacing" textLength="436" x="52" y="237.9268">List&lt;Follows&gt; findByFollowerIdAndUserToFollowId(Long followerId, Long userToFollowId)</text><!--MD5=[65449c24c5a407d7f488f9a5ce0d3870]
class Neo4jRepository--><rect fill="#FEFECE" filter="url(#f18d7le2ibzuo0)" height="32" id="Neo4jRepository" style="stroke:#A80036;stroke-width:1.5;" width="124" x="1486" y="42"/><ellipse cx="1501" cy="58" fill="#B4A7E5" rx="11" ry="11" style="stroke:#A80036;stroke-width:1.0;"/><path d="M1501.9531,54.6406 L1501.9531,61.2969 L1503.6719,61.2969 Q1504.2813,61.2969 1504.5469,61.5313 Q1504.8125,61.7656 1504.8125,62.1563 Q1504.8125,62.5313 1504.5469,62.7656 Q1504.2813,63 1503.6719,63 L1498.5313,63 Q1497.9219,63 1497.6563,62.7656 Q1497.3906,62.5313 1497.3906,62.1406 Q1497.3906,61.7656 1497.6563,61.5313 Q1497.9219,61.2969 1498.5313,61.2969 L1500.25,61.2969 L1500.25,54.6406 L1498.5313,54.6406 Q1497.9219,54.6406 1497.6563,54.4063 Q1497.3906,54.1719 1497.3906,53.7813 Q1497.3906,53.4063 1497.6563,53.1719 Q1497.9219,52.9375 1498.5313,52.9375 L1503.6719,52.9375 Q1504.2813,52.9375 1504.5469,53.1719 Q1504.8125,53.4063 1504.8125,53.7813 Q1504.8125,54.1719 1504.5469,54.4063 Q1504.2813,54.6406 1503.6719,54.6406 L1501.9531,54.6406 Z " fill="#000000"/><text fill="#000000" font-family="sans-serif" font-size="12" font-style="italic" lengthAdjust="spacing" textLength="92" x="1515" y="62.9102">Neo4jRepository</text><!--MD5=[21cd5c44581e4dc85d40554a7e694a0d]
class StockDao--><rect codeLine="10" fill="#FEFECE" filter="url(#f18d7le2ibzuo0)" height="103.3438" id="StockDao" style="stroke:#A80036;stroke-width:1.5;" width="269" x="529.5" y="141"/><ellipse cx="632.75" cy="157" fill="#B4A7E5" rx="11" ry="11" style="stroke:#A80036;stroke-width:1.0;"/><path d="M633.7031,153.6406 L633.7031,160.2969 L635.4219,160.2969 Q636.0313,160.2969 636.2969,160.5313 Q636.5625,160.7656 636.5625,161.1563 Q636.5625,161.5313 636.2969,161.7656 Q636.0313,162 635.4219,162 L630.2813,162 Q629.6719,162 629.4063,161.7656 Q629.1406,161.5313 629.1406,161.1406 Q629.1406,160.7656 629.4063,160.5313 Q629.6719,160.2969 630.2813,160.2969 L632,160.2969 L632,153.6406 L630.2813,153.6406 Q629.6719,153.6406 629.4063,153.4063 Q629.1406,153.1719 629.1406,152.7813 Q629.1406,152.4063 629.4063,152.1719 Q629.6719,151.9375 630.2813,151.9375 L635.4219,151.9375 Q636.0313,151.9375 636.2969,152.1719 Q636.5625,152.4063 636.5625,152.7813 Q636.5625,153.1719 636.2969,153.4063 Q636.0313,153.6406 635.4219,153.6406 L633.7031,153.6406 Z " fill="#000000"/><text fill="#000000" font-family="sans-serif" font-size="12" font-style="italic" lengthAdjust="spacing" textLength="54" x="653.25" y="161.9102">StockDao</text><line style="stroke:#A80036;stroke-width:1.5;" x1="530.5" x2="797.5" y1="173" y2="173"/><line style="stroke:#A80036;stroke-width:1.5;" x1="530.5" x2="797.5" y1="181" y2="181"/><polygon fill="#4177AF" points="540.5,188,536.5,194,544.5,194" style="stroke:#1963A0;stroke-width:1.0;"/><text fill="#000000" font-family="sans-serif" font-size="11" lengthAdjust="spacing" textLength="97" x="549.5" y="196.4189">List&lt;Stock&gt; findAll()</text><polygon fill="#4177AF" points="540.5,201.8359,536.5,207.8359,544.5,207.8359" style="stroke:#1963A0;stroke-width:1.0;"/><text fill="#000000" font-family="sans-serif" font-size="11" lengthAdjust="spacing" textLength="139" x="549.5" y="210.2549">Stock findStockById(Long id)</text><polygon fill="#4177AF" points="540.5,215.6719,536.5,221.6719,544.5,221.6719" style="stroke:#1963A0;stroke-width:1.0;"/><text fill="#000000" font-family="sans-serif" font-size="11" lengthAdjust="spacing" textLength="169" x="549.5" y="224.0908">Stock findBySymbol(String symbol)</text><polygon fill="#4177AF" points="540.5,229.5078,536.5,235.5078,544.5,235.5078" style="stroke:#1963A0;stroke-width:1.0;"/><text fill="#000000" font-family="sans-serif" font-size="11" lengthAdjust="spacing" textLength="243" x="549.5" y="237.9268">Stock findByCompanyName(String companyName)</text><!--MD5=[80f4d18c3eb0ec20d57bda4b74f02a96]
class TransactionDao--><rect codeLine="17" fill="#FEFECE" filter="url(#f18d7le2ibzuo0)" height="117.1797" id="TransactionDao" style="stroke:#A80036;stroke-width:1.5;" width="475" x="833.5" y="134"/><ellipse cx="1023.25" cy="150" fill="#B4A7E5" rx="11" ry="11" style="stroke:#A80036;stroke-width:1.0;"/><path d="M1024.2031,146.6406 L1024.2031,153.2969 L1025.9219,153.2969 Q1026.5313,153.2969 1026.7969,153.5313 Q1027.0625,153.7656 1027.0625,154.1563 Q1027.0625,154.5313 1026.7969,154.7656 Q1026.5313,155 1025.9219,155 L1020.7813,155 Q1020.1719,155 1019.9063,154.7656 Q1019.6406,154.5313 1019.6406,154.1406 Q1019.6406,153.7656 1019.9063,153.5313 Q1020.1719,153.2969 1020.7813,153.2969 L1022.5,153.2969 L1022.5,146.6406 L1020.7813,146.6406 Q1020.1719,146.6406 1019.9063,146.4063 Q1019.6406,146.1719 1019.6406,145.7813 Q1019.6406,145.4063 1019.9063,145.1719 Q1020.1719,144.9375 1020.7813,144.9375 L1025.9219,144.9375 Q1026.5313,144.9375 1026.7969,145.1719 Q1027.0625,145.4063 1027.0625,145.7813 Q1027.0625,146.1719 1026.7969,146.4063 Q1026.5313,146.6406 1025.9219,146.6406 L1024.2031,146.6406 Z " fill="#000000"/><text fill="#000000" font-family="sans-serif" font-size="12" font-style="italic" lengthAdjust="spacing" textLength="87" x="1043.75" y="154.9102">TransactionDao</text><line style="stroke:#A80036;stroke-width:1.5;" x1="834.5" x2="1307.5" y1="166" y2="166"/><line style="stroke:#A80036;stroke-width:1.5;" x1="834.5" x2="1307.5" y1="174" y2="174"/><polygon fill="#4177AF" points="844.5,181,840.5,187,848.5,187" style="stroke:#1963A0;stroke-width:1.0;"/><text fill="#000000" font-family="sans-serif" font-size="11" lengthAdjust="spacing" textLength="127" x="853.5" y="189.4189">List&lt;Transaction&gt; findAll()</text><polygon fill="#4177AF" points="844.5,194.8359,840.5,200.8359,848.5,200.8359" style="stroke:#1963A0;stroke-width:1.0;"/><text fill="#000000" font-family="sans-serif" font-size="11" lengthAdjust="spacing" textLength="280" x="853.5" y="203.2549">List&lt;Transaction&gt; findByStatus(TransactionStatus status)</text><polygon fill="#4177AF" points="844.5,208.6719,840.5,214.6719,848.5,214.6719" style="stroke:#1963A0;stroke-width:1.0;"/><text fill="#000000" font-family="sans-serif" font-size="11" lengthAdjust="spacing" textLength="449" x="853.5" y="217.0908">List&lt;Transaction&gt; findByMoneyTreeOrderType(MoneyTreeOrderType moneyTreeOrderType)</text><polygon fill="#4177AF" points="844.5,222.5078,840.5,228.5078,848.5,228.5078" style="stroke:#1963A0;stroke-width:1.0;"/><text fill="#000000" font-family="sans-serif" font-size="11" lengthAdjust="spacing" textLength="253" x="853.5" y="230.9268">Transaction findByClientOrderId(String clientOrderId)</text><polygon fill="#4177AF" points="844.5,236.3438,840.5,242.3438,848.5,242.3438" style="stroke:#1963A0;stroke-width:1.0;"/><text fill="#000000" font-family="sans-serif" font-size="11" lengthAdjust="spacing" textLength="199" x="853.5" y="244.7627">Transaction findTransactionById(Long id)</text><!--MD5=[201c4e468f2d1c83c84ba66570c18565]
class ToFulfillDao--><rect codeLine="25" fill="#FEFECE" filter="url(#f18d7le2ibzuo0)" height="103.3438" id="ToFulfillDao" style="stroke:#A80036;stroke-width:1.5;" width="409" x="1343.5" y="141"/><ellipse cx="1510.75" cy="157" fill="#B4A7E5" rx="11" ry="11" style="stroke:#A80036;stroke-width:1.0;"/><path d="M1511.7031,153.6406 L1511.7031,160.2969 L1513.4219,160.2969 Q1514.0313,160.2969 1514.2969,160.5313 Q1514.5625,160.7656 1514.5625,161.1563 Q1514.5625,161.5313 1514.2969,161.7656 Q1514.0313,162 1513.4219,162 L1508.2813,162 Q1507.6719,162 1507.4063,161.7656 Q1507.1406,161.5313 1507.1406,161.1406 Q1507.1406,160.7656 1507.4063,160.5313 Q1507.6719,160.2969 1508.2813,160.2969 L1510,160.2969 L1510,153.6406 L1508.2813,153.6406 Q1507.6719,153.6406 1507.4063,153.4063 Q1507.1406,153.1719 1507.1406,152.7813 Q1507.1406,152.4063 1507.4063,152.1719 Q1507.6719,151.9375 1508.2813,151.9375 L1513.4219,151.9375 Q1514.0313,151.9375 1514.2969,152.1719 Q1514.5625,152.4063 1514.5625,152.7813 Q1514.5625,153.1719 1514.2969,153.4063 Q1514.0313,153.6406 1513.4219,153.6406 L1511.7031,153.6406 Z " fill="#000000"/><text fill="#000000" font-family="sans-serif" font-size="12" font-style="italic" lengthAdjust="spacing" textLength="66" x="1531.25" y="161.9102">ToFulfillDao</text><line style="stroke:#A80036;stroke-width:1.5;" x1="1344.5" x2="1751.5" y1="173" y2="173"/><line style="stroke:#A80036;stroke-width:1.5;" x1="1344.5" x2="1751.5" y1="181" y2="181"/><polygon fill="#4177AF" points="1354.5,188,1350.5,194,1358.5,194" style="stroke:#1963A0;stroke-width:1.0;"/><text fill="#000000" font-family="sans-serif" font-size="11" lengthAdjust="spacing" textLength="232" x="1363.5" y="196.4189">ToFulfill findByTransactionId(Long transactionId)</text><polygon fill="#4177AF" points="1354.5,201.8359,1350.5,207.8359,1358.5,207.8359" style="stroke:#1963A0;stroke-width:1.0;"/><text fill="#000000" font-family="sans-serif" font-size="11" lengthAdjust="spacing" textLength="106" x="1363.5" y="210.2549">List&lt;ToFulfill&gt; findAll()</text><polygon fill="#4177AF" points="1354.5,215.6719,1350.5,221.6719,1358.5,221.6719" style="stroke:#1963A0;stroke-width:1.0;"/><text fill="#000000" font-family="sans-serif" font-size="11" lengthAdjust="spacing" textLength="203" x="1363.5" y="224.0908">List&lt;ToFulfill&gt; findByStockId(Long stockId)</text><polygon fill="#4177AF" points="1354.5,229.5078,1350.5,235.5078,1358.5,235.5078" style="stroke:#1963A0;stroke-width:1.0;"/><text fill="#000000" font-family="sans-serif" font-size="11" lengthAdjust="spacing" textLength="383" x="1363.5" y="237.9268">List&lt;ToFulfill&gt; findByTransactionIdAndStockId(Long transactionId, Long stockId)</text><!--MD5=[82f4f419684b5b67cc90304f8d2c85c5]
class OwnsDao--><rect codeLine="32" fill="#FEFECE" filter="url(#f18d7le2ibzuo0)" height="117.1797" id="OwnsDao" style="stroke:#A80036;stroke-width:1.5;" width="337" x="1787.5" y="134"/><ellipse cx="1925.25" cy="150" fill="#B4A7E5" rx="11" ry="11" style="stroke:#A80036;stroke-width:1.0;"/><path d="M1926.2031,146.6406 L1926.2031,153.2969 L1927.9219,153.2969 Q1928.5313,153.2969 1928.7969,153.5313 Q1929.0625,153.7656 1929.0625,154.1563 Q1929.0625,154.5313 1928.7969,154.7656 Q1928.5313,155 1927.9219,155 L1922.7813,155 Q1922.1719,155 1921.9063,154.7656 Q1921.6406,154.5313 1921.6406,154.1406 Q1921.6406,153.7656 1921.9063,153.5313 Q1922.1719,153.2969 1922.7813,153.2969 L1924.5,153.2969 L1924.5,146.6406 L1922.7813,146.6406 Q1922.1719,146.6406 1921.9063,146.4063 Q1921.6406,146.1719 1921.6406,145.7813 Q1921.6406,145.4063 1921.9063,145.1719 Q1922.1719,144.9375 1922.7813,144.9375 L1927.9219,144.9375 Q1928.5313,144.9375 1928.7969,145.1719 Q1929.0625,145.4063 1929.0625,145.7813 Q1929.0625,146.1719 1928.7969,146.4063 Q1928.5313,146.6406 1927.9219,146.6406 L1926.2031,146.6406 Z " fill="#000000"/><text fill="#000000" font-family="sans-serif" font-size="12" font-style="italic" lengthAdjust="spacing" textLength="53" x="1945.75" y="154.9102">OwnsDao</text><line style="stroke:#A80036;stroke-width:1.5;" x1="1788.5" x2="2123.5" y1="166" y2="166"/><line style="stroke:#A80036;stroke-width:1.5;" x1="1788.5" x2="2123.5" y1="174" y2="174"/><polygon fill="#4177AF" points="1798.5,181,1794.5,187,1802.5,187" style="stroke:#1963A0;stroke-width:1.0;"/><text fill="#000000" font-family="sans-serif" font-size="11" lengthAdjust="spacing" textLength="100" x="1807.5" y="189.4189">List&lt;Owns&gt; findAll()</text><polygon fill="#4177AF" points="1798.5,194.8359,1794.5,200.8359,1802.5,200.8359" style="stroke:#1963A0;stroke-width:1.0;"/><text fill="#000000" font-family="sans-serif" font-size="11" lengthAdjust="spacing" textLength="197" x="1807.5" y="203.2549">List&lt;Owns&gt; findByStockId(Long stockId)</text><polygon fill="#4177AF" points="1798.5,208.6719,1794.5,214.6719,1802.5,214.6719" style="stroke:#1963A0;stroke-width:1.0;"/><text fill="#000000" font-family="sans-serif" font-size="11" lengthAdjust="spacing" textLength="228" x="1807.5" y="217.0908">List&lt;Owns&gt; findByStockSymbol(String symbol)</text><polygon fill="#4177AF" points="1798.5,222.5078,1794.5,228.5078,1802.5,228.5078" style="stroke:#1963A0;stroke-width:1.0;"/><text fill="#000000" font-family="sans-serif" font-size="11" lengthAdjust="spacing" textLength="189" x="1807.5" y="230.9268">List&lt;Owns&gt; findByUserId(Long userId)</text><polygon fill="#4177AF" points="1798.5,236.3438,1794.5,242.3438,1802.5,242.3438" style="stroke:#1963A0;stroke-width:1.0;"/><text fill="#000000" font-family="sans-serif" font-size="11" lengthAdjust="spacing" textLength="311" x="1807.5" y="244.7627">List&lt;Owns&gt; findByUserIdAndStockId(Long userId, Long stockId)</text><!--MD5=[9d8aa3c38577ca0f8be3d9357c5ad167]
class MadeDao--><rect codeLine="40" fill="#FEFECE" filter="url(#f18d7le2ibzuo0)" height="117.1797" id="MadeDao" style="stroke:#A80036;stroke-width:1.5;" width="387" x="2159.5" y="134"/><ellipse cx="2322.25" cy="150" fill="#B4A7E5" rx="11" ry="11" style="stroke:#A80036;stroke-width:1.0;"/><path d="M2323.2031,146.6406 L2323.2031,153.2969 L2324.9219,153.2969 Q2325.5313,153.2969 2325.7969,153.5313 Q2326.0625,153.7656 2326.0625,154.1563 Q2326.0625,154.5313 2325.7969,154.7656 Q2325.5313,155 2324.9219,155 L2319.7813,155 Q2319.1719,155 2318.9063,154.7656 Q2318.6406,154.5313 2318.6406,154.1406 Q2318.6406,153.7656 2318.9063,153.5313 Q2319.1719,153.2969 2319.7813,153.2969 L2321.5,153.2969 L2321.5,146.6406 L2319.7813,146.6406 Q2319.1719,146.6406 2318.9063,146.4063 Q2318.6406,146.1719 2318.6406,145.7813 Q2318.6406,145.4063 2318.9063,145.1719 Q2319.1719,144.9375 2319.7813,144.9375 L2324.9219,144.9375 Q2325.5313,144.9375 2325.7969,145.1719 Q2326.0625,145.4063 2326.0625,145.7813 Q2326.0625,146.1719 2325.7969,146.4063 Q2325.5313,146.6406 2324.9219,146.6406 L2323.2031,146.6406 Z " fill="#000000"/><text fill="#000000" font-family="sans-serif" font-size="12" font-style="italic" lengthAdjust="spacing" textLength="53" x="2342.75" y="154.9102">MadeDao</text><line style="stroke:#A80036;stroke-width:1.5;" x1="2160.5" x2="2545.5" y1="166" y2="166"/><line style="stroke:#A80036;stroke-width:1.5;" x1="2160.5" x2="2545.5" y1="174" y2="174"/><polygon fill="#4177AF" points="2170.5,181,2166.5,187,2174.5,187" style="stroke:#1963A0;stroke-width:1.0;"/><text fill="#000000" font-family="sans-serif" font-size="11" lengthAdjust="spacing" textLength="223" x="2179.5" y="189.4189">Made findByTransactionId(Long transactionID)</text><polygon fill="#4177AF" points="2170.5,194.8359,2166.5,200.8359,2174.5,200.8359" style="stroke:#1963A0;stroke-width:1.0;"/><text fill="#000000" font-family="sans-serif" font-size="11" lengthAdjust="spacing" textLength="96" x="2179.5" y="203.2549">List&lt;Made&gt; findAll()</text><polygon fill="#4177AF" points="2170.5,208.6719,2166.5,214.6719,2174.5,214.6719" style="stroke:#1963A0;stroke-width:1.0;"/><text fill="#000000" font-family="sans-serif" font-size="11" lengthAdjust="spacing" textLength="277" x="2179.5" y="217.0908">List&lt;Made&gt; findByTransactionDate(Date transactionDate)</text><polygon fill="#4177AF" points="2170.5,222.5078,2166.5,228.5078,2174.5,228.5078" style="stroke:#1963A0;stroke-width:1.0;"/><text fill="#000000" font-family="sans-serif" font-size="11" lengthAdjust="spacing" textLength="185" x="2179.5" y="230.9268">List&lt;Made&gt; findByUserId(Long userId)</text><polygon fill="#4177AF" points="2170.5,236.3438,2166.5,242.3438,2174.5,242.3438" style="stroke:#1963A0;stroke-width:1.0;"/><text fill="#000000" font-family="sans-serif" font-size="11" lengthAdjust="spacing" textLength="361" x="2179.5" y="244.7627">List&lt;Made&gt; findByTransactionStatus(TransactionStatus transactionStatus)</text><!--MD5=[9a3bbfd3117684d69f292119fc3f290c]
class FollowsDao--><rect codeLine="48" fill="#FEFECE" filter="url(#f18d7le2ibzuo0)" height="103.3438" id="FollowsDao" style="stroke:#A80036;stroke-width:1.5;" width="462" x="2582" y="141"/><ellipse cx="2776.75" cy="157" fill="#B4A7E5" rx="11" ry="11" style="stroke:#A80036;stroke-width:1.0;"/><path d="M2777.7031,153.6406 L2777.7031,160.2969 L2779.4219,160.2969 Q2780.0313,160.2969 2780.2969,160.5313 Q2780.5625,160.7656 2780.5625,161.1563 Q2780.5625,161.5313 2780.2969,161.7656 Q2780.0313,162 2779.4219,162 L2774.2813,162 Q2773.6719,162 2773.4063,161.7656 Q2773.1406,161.5313 2773.1406,161.1406 Q2773.1406,160.7656 2773.4063,160.5313 Q2773.6719,160.2969 2774.2813,160.2969 L2776,160.2969 L2776,153.6406 L2774.2813,153.6406 Q2773.6719,153.6406 2773.4063,153.4063 Q2773.1406,153.1719 2773.1406,152.7813 Q2773.1406,152.4063 2773.4063,152.1719 Q2773.6719,151.9375 2774.2813,151.9375 L2779.4219,151.9375 Q2780.0313,151.9375 2780.2969,152.1719 Q2780.5625,152.4063 2780.5625,152.7813 Q2780.5625,153.1719 2780.2969,153.4063 Q2780.0313,153.6406 2779.4219,153.6406 L2777.7031,153.6406 Z " fill="#000000"/><text fill="#000000" font-family="sans-serif" font-size="12" font-style="italic" lengthAdjust="spacing" textLength="64" x="2797.25" y="161.9102">FollowsDao</text><line style="stroke:#A80036;stroke-width:1.5;" x1="2583" x2="3043" y1="173" y2="173"/><line style="stroke:#A80036;stroke-width:1.5;" x1="2583" x2="3043" y1="181" y2="181"/><polygon fill="#4177AF" points="2593,188,2589,194,2597,194" style="stroke:#1963A0;stroke-width:1.0;"/><text fill="#000000" font-family="sans-serif" font-size="11" lengthAdjust="spacing" textLength="108" x="2602" y="196.4189">List&lt;Follows&gt; findAll()</text><polygon fill="#4177AF" points="2593,201.8359,2589,207.8359,2597,207.8359" style="stroke:#1963A0;stroke-width:1.0;"/><text fill="#000000" font-family="sans-serif" font-size="11" lengthAdjust="spacing" textLength="234" x="2602" y="210.2549">List&lt;Follows&gt; findByFollowerId(Long followerId)</text><polygon fill="#4177AF" points="2593,215.6719,2589,221.6719,2597,221.6719" style="stroke:#1963A0;stroke-width:1.0;"/><text fill="#000000" font-family="sans-serif" font-size="11" lengthAdjust="spacing" textLength="285" x="2602" y="224.0908">List&lt;Follows&gt; findByUserToFollowId(Long userToFollowId)</text><polygon fill="#4177AF" points="2593,229.5078,2589,235.5078,2597,235.5078" style="stroke:#1963A0;stroke-width:1.0;"/><text fill="#000000" font-family="sans-serif" font-size="11" lengthAdjust="spacing" textLength="436" x="2602" y="237.9268">List&lt;Follows&gt; findByFollowerIdAndUserToFollowId(Long followerId, Long userToFollowId)</text><!--MD5=[be80df1183fc973d5697c8d7efb55a21]
reverse link Neo4jRepository to UserDao--><path d="M1465.53,60.65 C1289.45,65.1 864.13,80.92 512,134 C498.62,136.02 484.89,138.37 471.09,140.95 " fill="none" id="Neo4jRepository-backto-UserDao" style="stroke:#A80036;stroke-width:1.0;"/><polygon fill="none" points="1465.58,53.64,1485.74,60.16,1465.92,67.64,1465.58,53.64" style="stroke:#A80036;stroke-width:1.0;"/><!--MD5=[4f140d6044ae4a8bfa69499c0223f0dc]
reverse link Neo4jRepository to StockDao--><path d="M1465.61,60.51 C1328.89,64.55 1047.25,79.4 816,134 C807.49,136.01 798.81,138.38 790.13,140.98 " fill="none" id="Neo4jRepository-backto-StockDao" style="stroke:#A80036;stroke-width:1.0;"/><polygon fill="none" points="1465.71,53.5,1485.89,59.96,1466.09,67.5,1465.71,53.5" style="stroke:#A80036;stroke-width:1.0;"/><!--MD5=[f40bf7dba680a89c4b1fefed2dc6e06f]
reverse link Neo4jRepository to TransactionDao--><path d="M1474.29,79.47 C1421.64,94.1 1348.03,114.55 1278.08,133.98 " fill="none" id="Neo4jRepository-backto-TransactionDao" style="stroke:#A80036;stroke-width:1.0;"/><polygon fill="none" points="1472.6,72.68,1493.75,74.07,1476.35,86.17,1472.6,72.68" style="stroke:#A80036;stroke-width:1.0;"/><!--MD5=[70ebc946dafdae45aaf2cbbb2038193b]
reverse link Neo4jRepository to ToFulfillDao--><path d="M1548,94.36 C1548,108.62 1548,125.35 1548,140.87 " fill="none" id="Neo4jRepository-backto-ToFulfillDao" style="stroke:#A80036;stroke-width:1.0;"/><polygon fill="none" points="1541,94.2,1548,74.2,1555,94.2,1541,94.2" style="stroke:#A80036;stroke-width:1.0;"/><!--MD5=[ab41dc4032dab5ea5fb98bfaea698fcf]
reverse link Neo4jRepository to OwnsDao--><path d="M1613.66,80.32 C1660.65,95.58 1726.15,116.85 1787.29,136.71 " fill="none" id="Neo4jRepository-backto-OwnsDao" style="stroke:#A80036;stroke-width:1.0;"/><polygon fill="none" points="1611.27,86.91,1594.41,74.07,1615.59,73.59,1611.27,86.91" style="stroke:#A80036;stroke-width:1.0;"/><!--MD5=[2728cd159922397d160631e9531d8229]
reverse link Neo4jRepository to MadeDao--><path d="M1629.98,65.68 C1745.11,75.89 1960.88,98.07 2142,134 C2147.68,135.13 2153.43,136.32 2159.23,137.58 " fill="none" id="Neo4jRepository-backto-MadeDao" style="stroke:#A80036;stroke-width:1.0;"/><polygon fill="none" points="1629.34,72.65,1610.03,63.94,1630.56,58.7,1629.34,72.65" style="stroke:#A80036;stroke-width:1.0;"/><!--MD5=[87433b4e1509097bee466985d6c257cf]
reverse link Neo4jRepository to FollowsDao--><path d="M1630.41,60.81 C1804.01,65.55 2219.69,81.85 2564,134 C2577.38,136.03 2591.1,138.39 2604.9,140.97 " fill="none" id="Neo4jRepository-backto-FollowsDao" style="stroke:#A80036;stroke-width:1.0;"/><polygon fill="none" points="1630.03,67.8,1610.22,60.28,1630.4,53.81,1630.03,67.8" style="stroke:#A80036;stroke-width:1.0;"/><!--MD5=[579faf6dd405fda9b50308d85593c647]
@startuml

package dao {
    interface UserDao extends Neo4jRepository {
        ~List<Follows> findAll()
        ~List<Follows> findByFollowerId(Long followerId)
        ~List<Follows> findByUserToFollowId(Long userToFollowId)
        ~List<Follows> findByFollowerIdAndUserToFollowId(Long followerId, Long userToFollowId)
    }

    interface StockDao extends Neo4jRepository {
        ~List<Stock> findAll()
        ~Stock findStockById(Long id)
        ~Stock findBySymbol(String symbol)
        ~Stock findByCompanyName(String companyName)
    }

    interface TransactionDao extends Neo4jRepository {
        ~List<Transaction> findAll()
        ~List<Transaction> findByStatus(TransactionStatus status)
        ~List<Transaction> findByMoneyTreeOrderType(MoneyTreeOrderType moneyTreeOrderType)
        ~Transaction findByClientOrderId(String clientOrderId)
        ~Transaction findTransactionById(Long id)
    }

    interface ToFulfillDao extends Neo4jRepository {
            ~ToFulfill findByTransactionId(Long transactionId)
            ~List<ToFulfill> findAll()
            ~List<ToFulfill> findByStockId(Long stockId)
            ~List<ToFulfill> findByTransactionIdAndStockId(Long transactionId, Long stockId)
    }

    interface OwnsDao extends Neo4jRepository {
                ~List<Owns> findAll()
                ~List<Owns> findByStockId(Long stockId)
                ~List<Owns> findByStockSymbol(String symbol)
                ~List<Owns> findByUserId(Long userId)
                ~List<Owns> findByUserIdAndStockId(Long userId, Long stockId)
    }

    interface MadeDao extends Neo4jRepository {
                ~Made findByTransactionId(Long transactionID)
                ~List<Made> findAll()
                ~List<Made> findByTransactionDate(Date transactionDate)
                ~List<Made> findByUserId(Long userId)
                ~List<Made> findByTransactionStatus(TransactionStatus transactionStatus)
    }

    interface FollowsDao extends Neo4jRepository {
                ~List<Follows> findAll()
                ~List<Follows> findByFollowerId(Long followerId)
                ~List<Follows> findByUserToFollowId(Long userToFollowId)
                ~List<Follows> findByFollowerIdAndUserToFollowId(Long followerId, Long userToFollowId)
    }

    hide Neo4jRepository methods
    hide Neo4jRepository fields
}

@enduml

PlantUML version 1.2021.00(Sun Jan 10 02:25:05 PST 2021)
(GPL source distribution)
Java Runtime: Java(TM) SE Runtime Environment
JVM: Java HotSpot(TM) 64-Bit Server VM
Default Encoding: Cp1252
Language: en
Country: US
--></g></svg>